<svg xmlns="http://www.w3.org/2000/svg" xmlns:xlink="http://www.w3.org/1999/xlink" width="500" zoomAndPan="magnify" viewBox="0 0 375 374.999991" height="500" preserveAspectRatio="xMidYMid meet" version="1.0"><defs><g/><clipPath id="b8e21a9795"><path d="M 58 0.558594 L 342.800781 0.558594 L 342.800781 66.320312 L 58 66.320312 Z M 58 0.558594 " clip-rule="nonzero"/></clipPath><clipPath id="db1a7fa65a"><rect x="0" width="285" y="0" height="67"/></clipPath><clipPath id="24e8aaf770"><path d="M 0.390625 28.507812 L 48.339844 28.507812 L 48.339844 43.191406 L 0.390625 43.191406 Z M 0.390625 28.507812 " clip-rule="nonzero"/></clipPath><clipPath id="0a90e32869"><path d="M 7.730469 28.507812 L 40.980469 28.507812 C 42.925781 28.507812 44.792969 29.28125 46.171875 30.65625 C 47.546875 32.035156 48.320312 33.902344 48.320312 35.847656 C 48.320312 37.796875 47.546875 39.664062 46.171875 41.039062 C 44.792969 42.417969 42.925781 43.191406 40.980469 43.191406 L 7.730469 43.191406 C 5.785156 43.191406 3.917969 42.417969 2.539062 41.039062 C 1.164062 39.664062 0.390625 37.796875 0.390625 35.847656 C 0.390625 33.902344 1.164062 32.035156 2.539062 30.65625 C 3.917969 29.28125 5.785156 28.507812 7.730469 28.507812 Z M 7.730469 28.507812 " clip-rule="nonzero"/></clipPath><clipPath id="4778fb1152"><path d="M 0.390625 0.507812 L 48.339844 0.507812 L 48.339844 15.191406 L 0.390625 15.191406 Z M 0.390625 0.507812 " clip-rule="nonzero"/></clipPath><clipPath id="812b2f8c7d"><path d="M 7.730469 0.507812 L 40.980469 0.507812 C 42.925781 0.507812 44.792969 1.28125 46.171875 2.65625 C 47.546875 4.035156 48.320312 5.902344 48.320312 7.847656 C 48.320312 9.796875 47.546875 11.664062 46.171875 13.039062 C 44.792969 14.417969 42.925781 15.191406 40.980469 15.191406 L 7.730469 15.191406 C 5.785156 15.191406 3.917969 14.417969 2.539062 13.039062 C 1.164062 11.664062 0.390625 9.796875 0.390625 7.847656 C 0.390625 5.902344 1.164062 4.035156 2.539062 2.65625 C 3.917969 1.28125 5.785156 0.507812 7.730469 0.507812 Z M 7.730469 0.507812 " clip-rule="nonzero"/></clipPath><clipPath id="a0f35d5feb"><rect x="0" width="49" y="0" height="16"/></clipPath><clipPath id="2e7cf1e856"><path d="M 9.703125 20.328125 L 39.019531 20.328125 L 39.019531 25.695312 L 9.703125 25.695312 Z M 9.703125 20.328125 " clip-rule="nonzero"/></clipPath><clipPath id="1339b2d06a"><path d="M 12.390625 20.328125 L 36.320312 20.328125 C 37.035156 20.328125 37.714844 20.609375 38.21875 21.113281 C 38.722656 21.617188 39.003906 22.300781 39.003906 23.011719 C 39.003906 23.722656 38.722656 24.40625 38.21875 24.910156 C 37.714844 25.414062 37.035156 25.695312 36.320312 25.695312 L 12.390625 25.695312 C 11.675781 25.695312 10.996094 25.414062 10.492188 24.910156 C 9.988281 24.40625 9.703125 23.722656 9.703125 23.011719 C 9.703125 22.300781 9.988281 21.617188 10.492188 21.113281 C 10.996094 20.609375 11.675781 20.328125 12.390625 20.328125 Z M 12.390625 20.328125 " clip-rule="nonzero"/></clipPath><clipPath id="209f96c1cb"><path d="M 0.703125 0.328125 L 30 0.328125 L 30 5.695312 L 0.703125 5.695312 Z M 0.703125 0.328125 " clip-rule="nonzero"/></clipPath><clipPath id="5fe613e0b0"><path d="M 3.390625 0.328125 L 27.320312 0.328125 C 28.035156 0.328125 28.714844 0.609375 29.21875 1.113281 C 29.722656 1.617188 30.003906 2.300781 30.003906 3.011719 C 30.003906 3.722656 29.722656 4.40625 29.21875 4.910156 C 28.714844 5.414062 28.035156 5.695312 27.320312 5.695312 L 3.390625 5.695312 C 2.675781 5.695312 1.996094 5.414062 1.492188 4.910156 C 0.988281 4.40625 0.703125 3.722656 0.703125 3.011719 C 0.703125 2.300781 0.988281 1.617188 1.492188 1.113281 C 1.996094 0.609375 2.675781 0.328125 3.390625 0.328125 Z M 3.390625 0.328125 " clip-rule="nonzero"/></clipPath><clipPath id="8e28bd5430"><rect x="0" width="31" y="0" height="6"/></clipPath><clipPath id="fd304d9077"><path d="M 9.703125 46.054688 L 39.019531 46.054688 L 39.019531 51.421875 L 9.703125 51.421875 Z M 9.703125 46.054688 " clip-rule="nonzero"/></clipPath><clipPath id="11738c520b"><path d="M 12.390625 46.054688 L 36.320312 46.054688 C 37.035156 46.054688 37.714844 46.339844 38.21875 46.839844 C 38.722656 47.34375 39.003906 48.027344 39.003906 48.738281 C 39.003906 49.453125 38.722656 50.132812 38.21875 50.636719 C 37.714844 51.140625 37.035156 51.421875 36.320312 51.421875 L 12.390625 51.421875 C 11.675781 51.421875 10.996094 51.140625 10.492188 50.636719 C 9.988281 50.132812 9.703125 49.453125 9.703125 48.738281 C 9.703125 48.027344 9.988281 47.34375 10.492188 46.839844 C 10.996094 46.339844 11.675781 46.054688 12.390625 46.054688 Z M 12.390625 46.054688 " clip-rule="nonzero"/></clipPath><clipPath id="c3e0cc6925"><path d="M 0.703125 0.0546875 L 30 0.0546875 L 30 5.421875 L 0.703125 5.421875 Z M 0.703125 0.0546875 " clip-rule="nonzero"/></clipPath><clipPath id="46cd735093"><path d="M 3.390625 0.0546875 L 27.320312 0.0546875 C 28.035156 0.0546875 28.714844 0.339844 29.21875 0.839844 C 29.722656 1.34375 30.003906 2.027344 30.003906 2.738281 C 30.003906 3.453125 29.722656 4.132812 29.21875 4.636719 C 28.714844 5.140625 28.035156 5.421875 27.320312 5.421875 L 3.390625 5.421875 C 2.675781 5.421875 1.996094 5.140625 1.492188 4.636719 C 0.988281 4.132812 0.703125 3.453125 0.703125 2.738281 C 0.703125 2.027344 0.988281 1.34375 1.492188 0.839844 C 1.996094 0.339844 2.675781 0.0546875 3.390625 0.0546875 Z M 3.390625 0.0546875 " clip-rule="nonzero"/></clipPath><clipPath id="2c7ffe0066"><rect x="0" width="31" y="0" height="6"/></clipPath><clipPath id="241f356394"><rect x="0" width="343" y="0" height="67"/></clipPath></defs><g transform="matrix(1, 0, 0, 1, 16, 154)"><g clip-path="url(#241f356394)"><g clip-path="url(#b8e21a9795)"><g transform="matrix(1, 0, 0, 1, 58, 0)"><g clip-path="url(#db1a7fa65a)"><g fill="#f5f2e8" fill-opacity="1"><g transform="translate(0.740048, 49.466759)"><g><path d="M 3.953125 -0.234375 C 4.359375 -0.796875 4.703125 -1.5 4.984375 -2.34375 C 5.265625 -3.195312 5.40625 -4.0625 5.40625 -4.9375 L 5.40625 -28 C 5.40625 -28.875 5.265625 -29.734375 4.984375 -30.578125 C 4.703125 -31.429688 4.359375 -32.140625 3.953125 -32.703125 L 3.953125 -32.9375 L 15.15625 -32.9375 C 18.726562 -32.9375 21.695312 -32.191406 24.0625 -30.703125 C 26.4375 -29.210938 27.625 -26.742188 27.625 -23.296875 C 27.625 -21.066406 27.082031 -19.207031 26 -17.71875 C 24.914062 -16.226562 23.492188 -15.132812 21.734375 -14.4375 C 19.984375 -13.75 18.085938 -13.40625 16.046875 -13.40625 C 14.316406 -13.40625 12.734375 -13.707031 11.296875 -14.3125 L 11.296875 -14.875 C 12.453125 -14.59375 13.675781 -14.453125 14.96875 -14.453125 C 17.507812 -14.453125 19.46875 -15.28125 20.84375 -16.9375 C 22.226562 -18.601562 22.921875 -20.722656 22.921875 -23.296875 C 22.921875 -24.835938 22.613281 -26.265625 22 -27.578125 C 21.382812 -28.898438 20.476562 -29.957031 19.28125 -30.75 C 18.09375 -31.550781 16.640625 -31.953125 14.921875 -31.953125 C 13.878906 -31.953125 12.984375 -31.894531 12.234375 -31.78125 C 11.484375 -31.675781 10.703125 -31.5 9.890625 -31.25 L 9.890625 -4.9375 C 9.890625 -4.0625 10.03125 -3.195312 10.3125 -2.34375 C 10.59375 -1.5 10.9375 -0.796875 11.34375 -0.234375 L 11.34375 0 L 3.953125 0 Z M 3.953125 -0.234375 "/></g></g><g transform="translate(29.776095, 49.466759)"><g><path d="M 22.828125 -7.484375 C 22.328125 -5.097656 21.203125 -3.164062 19.453125 -1.6875 C 17.710938 -0.21875 15.601562 0.515625 13.125 0.515625 C 11.0625 0.515625 9.203125 0.0507812 7.546875 -0.875 C 5.898438 -1.800781 4.597656 -3.140625 3.640625 -4.890625 C 2.691406 -6.648438 2.21875 -8.722656 2.21875 -11.109375 C 2.21875 -13.679688 2.734375 -15.945312 3.765625 -17.90625 C 4.796875 -19.863281 6.175781 -21.375 7.90625 -22.4375 C 9.632812 -23.507812 11.484375 -24.046875 13.453125 -24.046875 C 15.304688 -24.046875 16.90625 -23.640625 18.25 -22.828125 C 19.601562 -22.015625 20.632812 -20.9375 21.34375 -19.59375 C 22.050781 -18.257812 22.40625 -16.8125 22.40625 -15.25 L 5.828125 -15.25 L 5.828125 -14.78125 C 5.828125 -12.207031 6.21875 -10.023438 7 -8.234375 C 7.789062 -6.441406 8.867188 -5.09375 10.234375 -4.1875 C 11.597656 -3.28125 13.144531 -2.828125 14.875 -2.828125 C 16.625 -2.828125 18.15625 -3.238281 19.46875 -4.0625 C 20.789062 -4.894531 21.753906 -6.035156 22.359375 -7.484375 Z M 11.953125 -22.640625 C 10.410156 -22.640625 9.078125 -22.101562 7.953125 -21.03125 C 6.828125 -19.96875 6.15625 -18.367188 5.9375 -16.234375 L 17.9375 -16.234375 C 17.675781 -18.273438 17.046875 -19.851562 16.046875 -20.96875 C 15.046875 -22.082031 13.679688 -22.640625 11.953125 -22.640625 Z M 11.953125 -22.640625 "/></g></g></g><g fill="#f5f2e8" fill-opacity="1"><g transform="translate(54.341435, 49.466759)"><g><path d="M 13.59375 0.515625 C 9.894531 0.515625 6.710938 -0.425781 4.046875 -2.3125 L 4.046875 -28.375 C 4.046875 -29.414062 3.921875 -30.28125 3.671875 -30.96875 C 3.421875 -31.65625 3.046875 -32.25 2.546875 -32.75 L 2.546875 -32.984375 L 8 -35.0625 L 8.234375 -35.0625 L 8.234375 -19.390625 L 8.46875 -19.390625 C 9.125 -20.765625 10.109375 -21.882812 11.421875 -22.75 C 12.742188 -23.613281 14.253906 -24.046875 15.953125 -24.046875 C 17.867188 -24.046875 19.539062 -23.523438 20.96875 -22.484375 C 22.394531 -21.453125 23.472656 -20.035156 24.203125 -18.234375 C 24.941406 -16.429688 25.3125 -14.398438 25.3125 -12.140625 C 25.3125 -10.035156 24.816406 -8.007812 23.828125 -6.0625 C 22.847656 -4.125 21.460938 -2.539062 19.671875 -1.3125 C 17.878906 -0.09375 15.851562 0.515625 13.59375 0.515625 Z M 13.890625 -0.46875 C 16.109375 -0.46875 17.820312 -1.425781 19.03125 -3.34375 C 20.238281 -5.257812 20.84375 -7.847656 20.84375 -11.109375 C 20.84375 -14.304688 20.242188 -16.820312 19.046875 -18.65625 C 17.859375 -20.488281 16.234375 -21.40625 14.171875 -21.40625 C 12.503906 -21.40625 11.117188 -20.878906 10.015625 -19.828125 C 8.921875 -18.785156 8.328125 -17.429688 8.234375 -15.765625 L 8.234375 -5.125 C 8.296875 -4.40625 8.5625 -3.679688 9.03125 -2.953125 C 9.5 -2.234375 10.148438 -1.640625 10.984375 -1.171875 C 11.816406 -0.703125 12.785156 -0.46875 13.890625 -0.46875 Z M 13.890625 -0.46875 "/></g></g></g><g fill="#f5f2e8" fill-opacity="1"><g transform="translate(81.824495, 49.466759)"><g><path d="M 22.828125 -7.484375 C 22.328125 -5.097656 21.203125 -3.164062 19.453125 -1.6875 C 17.710938 -0.21875 15.601562 0.515625 13.125 0.515625 C 11.0625 0.515625 9.203125 0.0507812 7.546875 -0.875 C 5.898438 -1.800781 4.597656 -3.140625 3.640625 -4.890625 C 2.691406 -6.648438 2.21875 -8.722656 2.21875 -11.109375 C 2.21875 -13.679688 2.734375 -15.945312 3.765625 -17.90625 C 4.796875 -19.863281 6.175781 -21.375 7.90625 -22.4375 C 9.632812 -23.507812 11.484375 -24.046875 13.453125 -24.046875 C 15.304688 -24.046875 16.90625 -23.640625 18.25 -22.828125 C 19.601562 -22.015625 20.632812 -20.9375 21.34375 -19.59375 C 22.050781 -18.257812 22.40625 -16.8125 22.40625 -15.25 L 5.828125 -15.25 L 5.828125 -14.78125 C 5.828125 -12.207031 6.21875 -10.023438 7 -8.234375 C 7.789062 -6.441406 8.867188 -5.09375 10.234375 -4.1875 C 11.597656 -3.28125 13.144531 -2.828125 14.875 -2.828125 C 16.625 -2.828125 18.15625 -3.238281 19.46875 -4.0625 C 20.789062 -4.894531 21.753906 -6.035156 22.359375 -7.484375 Z M 11.953125 -22.640625 C 10.410156 -22.640625 9.078125 -22.101562 7.953125 -21.03125 C 6.828125 -19.96875 6.15625 -18.367188 5.9375 -16.234375 L 17.9375 -16.234375 C 17.675781 -18.273438 17.046875 -19.851562 16.046875 -20.96875 C 15.046875 -22.082031 13.679688 -22.640625 11.953125 -22.640625 Z M 11.953125 -22.640625 "/></g></g></g><g fill="#f5f2e8" fill-opacity="1"><g transform="translate(106.389833, 49.466759)"><g><path d="M 22.828125 -7.484375 C 22.328125 -5.097656 21.203125 -3.164062 19.453125 -1.6875 C 17.710938 -0.21875 15.601562 0.515625 13.125 0.515625 C 11.0625 0.515625 9.203125 0.0507812 7.546875 -0.875 C 5.898438 -1.800781 4.597656 -3.140625 3.640625 -4.890625 C 2.691406 -6.648438 2.21875 -8.722656 2.21875 -11.109375 C 2.21875 -13.679688 2.734375 -15.945312 3.765625 -17.90625 C 4.796875 -19.863281 6.175781 -21.375 7.90625 -22.4375 C 9.632812 -23.507812 11.484375 -24.046875 13.453125 -24.046875 C 15.304688 -24.046875 16.90625 -23.640625 18.25 -22.828125 C 19.601562 -22.015625 20.632812 -20.9375 21.34375 -19.59375 C 22.050781 -18.257812 22.40625 -16.8125 22.40625 -15.25 L 5.828125 -15.25 L 5.828125 -14.78125 C 5.828125 -12.207031 6.21875 -10.023438 7 -8.234375 C 7.789062 -6.441406 8.867188 -5.09375 10.234375 -4.1875 C 11.597656 -3.28125 13.144531 -2.828125 14.875 -2.828125 C 16.625 -2.828125 18.15625 -3.238281 19.46875 -4.0625 C 20.789062 -4.894531 21.753906 -6.035156 22.359375 -7.484375 Z M 11.953125 -22.640625 C 10.410156 -22.640625 9.078125 -22.101562 7.953125 -21.03125 C 6.828125 -19.96875 6.15625 -18.367188 5.9375 -16.234375 L 17.9375 -16.234375 C 17.675781 -18.273438 17.046875 -19.851562 16.046875 -20.96875 C 15.046875 -22.082031 13.679688 -22.640625 11.953125 -22.640625 Z M 11.953125 -22.640625 "/></g></g></g><g fill="#f5f2e8" fill-opacity="1"><g transform="translate(130.955171, 49.466759)"><g/></g><g transform="translate(142.720182, 49.466759)"><g><path d="M 3.953125 -0.234375 C 4.359375 -0.796875 4.703125 -1.5 4.984375 -2.34375 C 5.265625 -3.195312 5.40625 -4.0625 5.40625 -4.9375 L 5.40625 -28 C 5.40625 -28.875 5.265625 -29.734375 4.984375 -30.578125 C 4.703125 -31.429688 4.359375 -32.140625 3.953125 -32.703125 L 3.953125 -32.9375 L 11.34375 -32.9375 L 11.34375 -32.703125 C 10.9375 -32.140625 10.59375 -31.429688 10.3125 -30.578125 C 10.03125 -29.734375 9.890625 -28.875 9.890625 -28 L 9.890625 -17.453125 L 26.453125 -17.453125 L 26.453125 -28 C 26.453125 -28.875 26.3125 -29.734375 26.03125 -30.578125 C 25.75 -31.429688 25.398438 -32.140625 24.984375 -32.703125 L 24.984375 -32.9375 L 32.375 -32.9375 L 32.375 -32.703125 C 31.96875 -32.140625 31.625 -31.429688 31.34375 -30.578125 C 31.0625 -29.734375 30.921875 -28.875 30.921875 -28 L 30.921875 -4.9375 C 30.921875 -4.0625 31.0625 -3.195312 31.34375 -2.34375 C 31.625 -1.5 31.96875 -0.796875 32.375 -0.234375 L 32.375 0 L 24.984375 0 L 24.984375 -0.234375 C 25.398438 -0.796875 25.75 -1.5 26.03125 -2.34375 C 26.3125 -3.195312 26.453125 -4.0625 26.453125 -4.9375 L 26.453125 -16.46875 L 9.890625 -16.46875 L 9.890625 -4.9375 C 9.890625 -4.0625 10.03125 -3.195312 10.3125 -2.34375 C 10.59375 -1.5 10.9375 -0.796875 11.34375 -0.234375 L 11.34375 0 L 3.953125 0 Z M 3.953125 -0.234375 "/></g></g></g><g fill="#f5f2e8" fill-opacity="1"><g transform="translate(179.050531, 49.466759)"><g><path d="M 22.828125 -7.484375 C 22.328125 -5.097656 21.203125 -3.164062 19.453125 -1.6875 C 17.710938 -0.21875 15.601562 0.515625 13.125 0.515625 C 11.0625 0.515625 9.203125 0.0507812 7.546875 -0.875 C 5.898438 -1.800781 4.597656 -3.140625 3.640625 -4.890625 C 2.691406 -6.648438 2.21875 -8.722656 2.21875 -11.109375 C 2.21875 -13.679688 2.734375 -15.945312 3.765625 -17.90625 C 4.796875 -19.863281 6.175781 -21.375 7.90625 -22.4375 C 9.632812 -23.507812 11.484375 -24.046875 13.453125 -24.046875 C 15.304688 -24.046875 16.90625 -23.640625 18.25 -22.828125 C 19.601562 -22.015625 20.632812 -20.9375 21.34375 -19.59375 C 22.050781 -18.257812 22.40625 -16.8125 22.40625 -15.25 L 5.828125 -15.25 L 5.828125 -14.78125 C 5.828125 -12.207031 6.21875 -10.023438 7 -8.234375 C 7.789062 -6.441406 8.867188 -5.09375 10.234375 -4.1875 C 11.597656 -3.28125 13.144531 -2.828125 14.875 -2.828125 C 16.625 -2.828125 18.15625 -3.238281 19.46875 -4.0625 C 20.789062 -4.894531 21.753906 -6.035156 22.359375 -7.484375 Z M 11.953125 -22.640625 C 10.410156 -22.640625 9.078125 -22.101562 7.953125 -21.03125 C 6.828125 -19.96875 6.15625 -18.367188 5.9375 -16.234375 L 17.9375 -16.234375 C 17.675781 -18.273438 17.046875 -19.851562 16.046875 -20.96875 C 15.046875 -22.082031 13.679688 -22.640625 11.953125 -22.640625 Z M 11.953125 -22.640625 "/></g></g></g><g fill="#f5f2e8" fill-opacity="1"><g transform="translate(203.615869, 49.466759)"><g><path d="M 22.03125 -0.984375 C 21.78125 -0.546875 21.363281 -0.1875 20.78125 0.09375 C 20.195312 0.375 19.5625 0.515625 18.875 0.515625 C 17.800781 0.515625 16.925781 0.25 16.25 -0.28125 C 15.582031 -0.8125 15.234375 -1.597656 15.203125 -2.640625 L 15.15625 -3.203125 L 14.96875 -3.203125 C 14.28125 -2.003906 13.363281 -1.082031 12.21875 -0.4375 C 11.070312 0.195312 9.726562 0.515625 8.1875 0.515625 C 6.332031 0.515625 4.878906 0.0625 3.828125 -0.84375 C 2.785156 -1.757812 2.265625 -2.9375 2.265625 -4.375 C 2.265625 -6.070312 2.890625 -7.484375 4.140625 -8.609375 C 5.398438 -9.742188 7.007812 -10.578125 8.96875 -11.109375 C 10.925781 -11.640625 13.003906 -11.90625 15.203125 -11.90625 L 15.203125 -15.765625 C 15.203125 -17.460938 14.648438 -18.867188 13.546875 -19.984375 C 12.453125 -21.097656 11.007812 -21.65625 9.21875 -21.65625 C 7.8125 -21.65625 6.570312 -21.304688 5.5 -20.609375 C 4.4375 -19.921875 3.609375 -18.984375 3.015625 -17.796875 L 2.546875 -17.796875 C 3.046875 -19.703125 4.046875 -21.21875 5.546875 -22.34375 C 7.054688 -23.476562 8.847656 -24.046875 10.921875 -24.046875 C 13.523438 -24.046875 15.585938 -23.273438 17.109375 -21.734375 C 18.628906 -20.203125 19.390625 -18.210938 19.390625 -15.765625 L 19.390625 -2.640625 C 19.390625 -2.066406 19.519531 -1.640625 19.78125 -1.359375 C 20.050781 -1.078125 20.390625 -0.9375 20.796875 -0.9375 C 21.335938 -0.9375 21.671875 -1.03125 21.796875 -1.21875 Z M 10.5 -1.6875 C 11.875 -1.6875 13 -2.195312 13.875 -3.21875 C 14.757812 -4.238281 15.203125 -5.394531 15.203125 -6.6875 L 15.203125 -10.921875 C 12.566406 -10.859375 10.488281 -10.347656 8.96875 -9.390625 C 7.445312 -8.429688 6.6875 -7.101562 6.6875 -5.40625 C 6.6875 -4.1875 7.0625 -3.257812 7.8125 -2.625 C 8.5625 -2 9.457031 -1.6875 10.5 -1.6875 Z M 10.5 -1.6875 "/></g></g></g><g fill="#f5f2e8" fill-opacity="1"><g transform="translate(226.816484, 49.466759)"><g><path d="M 3.296875 -0.234375 C 4.109375 -1.359375 4.515625 -2.816406 4.515625 -4.609375 L 4.515625 -28.375 C 4.515625 -29.414062 4.390625 -30.28125 4.140625 -30.96875 C 3.890625 -31.65625 3.515625 -32.25 3.015625 -32.75 L 3.015625 -32.984375 L 8.46875 -35.0625 L 8.703125 -35.0625 L 8.703125 -4.609375 C 8.703125 -2.816406 9.113281 -1.359375 9.9375 -0.234375 L 9.9375 0 L 3.296875 0 Z M 3.296875 -0.234375 "/></g></g></g><g fill="#f5f2e8" fill-opacity="1"><g transform="translate(239.805051, 49.466759)"><g><path d="M 10.359375 0.515625 C 8.660156 0.515625 7.210938 -0.03125 6.015625 -1.125 C 4.828125 -2.226562 4.234375 -3.765625 4.234375 -5.734375 L 4.234375 -19.390625 C 4.234375 -20.898438 3.53125 -21.9375 2.125 -22.5 L 2.125 -22.734375 C 4.25 -23.828125 6.269531 -25.582031 8.1875 -28 L 8.421875 -28 L 8.421875 -23.53125 L 15.25 -23.53125 L 14.734375 -22.03125 L 8.421875 -22.03125 L 8.421875 -5.734375 C 8.421875 -4.453125 8.78125 -3.445312 9.5 -2.71875 C 10.226562 -2 11.140625 -1.640625 12.234375 -1.640625 C 12.953125 -1.640625 13.570312 -1.757812 14.09375 -2 C 14.613281 -2.238281 15 -2.515625 15.25 -2.828125 L 15.71875 -2.59375 C 15.21875 -1.644531 14.503906 -0.890625 13.578125 -0.328125 C 12.648438 0.234375 11.578125 0.515625 10.359375 0.515625 Z M 10.359375 0.515625 "/></g></g></g><g fill="#f5f2e8" fill-opacity="1"><g transform="translate(256.040746, 49.466759)"><g><path d="M 3.296875 -0.234375 C 4.109375 -1.359375 4.515625 -2.816406 4.515625 -4.609375 L 4.515625 -28.375 C 4.515625 -29.414062 4.390625 -30.28125 4.140625 -30.96875 C 3.890625 -31.65625 3.515625 -32.25 3.015625 -32.75 L 3.015625 -32.984375 L 8.46875 -35.0625 L 8.703125 -35.0625 L 8.703125 -19.296875 L 8.9375 -19.296875 C 9.570312 -20.703125 10.546875 -21.84375 11.859375 -22.71875 C 13.179688 -23.601562 14.71875 -24.046875 16.46875 -24.046875 C 18.851562 -24.046875 20.75 -23.269531 22.15625 -21.71875 C 23.570312 -20.164062 24.28125 -18.164062 24.28125 -15.71875 L 24.28125 -4.609375 C 24.28125 -2.816406 24.691406 -1.359375 25.515625 -0.234375 L 25.515625 0 L 18.875 0 L 18.875 -0.234375 C 19.6875 -1.359375 20.09375 -2.816406 20.09375 -4.609375 L 20.09375 -15.671875 C 20.09375 -17.304688 19.585938 -18.65625 18.578125 -19.71875 C 17.578125 -20.78125 16.265625 -21.3125 14.640625 -21.3125 C 13.003906 -21.3125 11.601562 -20.785156 10.4375 -19.734375 C 9.28125 -18.691406 8.703125 -17.335938 8.703125 -15.671875 L 8.703125 -4.609375 C 8.703125 -2.816406 9.113281 -1.359375 9.9375 -0.234375 L 9.9375 0 L 3.296875 0 Z M 3.296875 -0.234375 "/></g></g></g></g></g></g><g clip-path="url(#24e8aaf770)"><g clip-path="url(#0a90e32869)"><g transform="matrix(1, 0, 0, 1, 0, 28)"><g clip-path="url(#a0f35d5feb)"><g clip-path="url(#4778fb1152)"><g clip-path="url(#812b2f8c7d)"><path fill="#fbbf69" d="M 0.390625 0.507812 L 48.339844 0.507812 L 48.339844 15.191406 L 0.390625 15.191406 Z M 0.390625 0.507812 " fill-opacity="1" fill-rule="nonzero"/></g></g></g></g></g></g><g clip-path="url(#2e7cf1e856)"><g clip-path="url(#1339b2d06a)"><g transform="matrix(1, 0, 0, 1, 9, 20)"><g clip-path="url(#8e28bd5430)"><g clip-path="url(#209f96c1cb)"><g clip-path="url(#5fe613e0b0)"><path fill="#fbbf69" d="M 0.703125 0.328125 L 30 0.328125 L 30 5.695312 L 0.703125 5.695312 Z M 0.703125 0.328125 " fill-opacity="1" fill-rule="nonzero"/></g></g></g></g></g></g><g clip-path="url(#fd304d9077)"><g clip-path="url(#11738c520b)"><g transform="matrix(1, 0, 0, 1, 9, 46)"><g clip-path="url(#2c7ffe0066)"><g clip-path="url(#c3e0cc6925)"><g clip-path="url(#46cd735093)"><path fill="#fbbf69" d="M 0.703125 0.0546875 L 30 0.0546875 L 30 5.421875 L 0.703125 5.421875 Z M 0.703125 0.0546875 " fill-opacity="1" fill-rule="nonzero"/></g></g></g></g></g></g></g></g></svg>